<svg xmlns="http://www.w3.org/2000/svg" version="1.1" xmlns:xlink="http://www.w3.org/1999/xlink"
    xmlns:svgjs="http://svgjs.com/svgjs" preserveAspectRatio="xMidYMid meet" viewBox="0 0 400 554.3019927978515">
    <line x1="65.6" y1="9.6" x2="94.39999999999999" y2="38.4" stroke-width="2" stroke="#000000"></line>
    <line x1="65.6" y1="38.4" x2="94.39999999999999" y2="9.6" stroke-width="2" stroke="#000000"></line>
    <line x1="113.6" y1="9.6" x2="142.39999999999998" y2="38.4" stroke-width="2" stroke="#000000"></line>
    <line x1="113.6" y1="38.4" x2="142.39999999999998" y2="9.6" stroke-width="2" stroke="#000000"></line>
    <circle r="14.399999999999999" cx="176" cy="24" fill="none" stroke-width="2" stroke="#000000"
        class="open-string open-string-2"></circle>
    <line x1="79" y1="53" x2="321" y2="53" stroke-width="10" stroke="#000000"></line>
    <line x1="80" y1="142" x2="320" y2="142" stroke-width="2" stroke="#000000"></line>
    <line x1="80" y1="226" x2="320" y2="226" stroke-width="2" stroke="#000000"></line>
    <line x1="80" y1="310" x2="320" y2="310" stroke-width="2" stroke="#000000"></line>
    <line x1="80" y1="394" x2="320" y2="394" stroke-width="2" stroke="#000000"></line>
    <line x1="80" y1="478" x2="320" y2="478" stroke-width="2" stroke="#000000"></line>
    <line x1="80" y1="58" x2="80" y2="479" stroke-width="2" stroke="#000000"></line>
    <line x1="128" y1="58" x2="128" y2="479" stroke-width="2" stroke="#000000"></line>
    <line x1="176" y1="58" x2="176" y2="479" stroke-width="2" stroke="#000000"></line>
    <line x1="224" y1="58" x2="224" y2="479" stroke-width="2" stroke="#000000"></line>
    <line x1="272" y1="58" x2="272" y2="479" stroke-width="2" stroke="#000000"></line>
    <line x1="320" y1="58" x2="320" y2="479" stroke-width="2" stroke="#000000"></line>
    <circle r="15.600000000000001" cx="224" cy="184" fill="#000000" stroke-width="0" stroke="#000000"
        class="finger finger-string-3 finger-fret-1 finger-string-3-fret-1 finger-circle"></circle>
    <circle r="15.600000000000001" cx="320" cy="184" fill="#000000" stroke-width="0" stroke="#000000"
        class="finger finger-string-5 finger-fret-1 finger-string-5-fret-1 finger-circle"></circle>
    <circle r="15.600000000000001" cx="272" cy="268" fill="#000000" stroke-width="0" stroke="#000000"
        class="finger finger-string-4 finger-fret-2 finger-string-4-fret-2 finger-circle"></circle>
    <circle r="0" cx="0" cy="0" fill="none" stroke-width="0" stroke="transparent" class="top-left"></circle>
    <circle r="0" cx="400" cy="0" fill="none" stroke-width="0" stroke="transparent" class="top-right"></circle>
</svg>