<svg xmlns="http://www.w3.org/2000/svg" version="1.1" xmlns:xlink="http://www.w3.org/1999/xlink"
    xmlns:svgjs="http://svgjs.com/svgjs" preserveAspectRatio="xMidYMid meet" viewBox="0 0 400 513.7775039672852">
	<div style="margin-top: 20px"></div>
    <line x1="79" y1="14.6" x2="321" y2="14.6" stroke-width="10" stroke="#000000"></line>
    <line x1="80" y1="103.6" x2="320" y2="103.6" stroke-width="2" stroke="#000000"></line>
    <line x1="80" y1="187.6" x2="320" y2="187.6" stroke-width="2" stroke="#000000"></line>
    <line x1="80" y1="271.6" x2="320" y2="271.6" stroke-width="2" stroke="#000000"></line>
    <line x1="80" y1="355.6" x2="320" y2="355.6" stroke-width="2" stroke="#000000"></line>
    <line x1="80" y1="439.6" x2="320" y2="439.6" stroke-width="2" stroke="#000000"></line>
    <line x1="80" y1="19.6" x2="80" y2="440.6" stroke-width="2" stroke="#000000"></line>
    <line x1="128" y1="19.6" x2="128" y2="440.6" stroke-width="2" stroke="#000000"></line>
    <line x1="176" y1="19.6" x2="176" y2="440.6" stroke-width="2" stroke="#000000"></line>
    <line x1="224" y1="19.6" x2="224" y2="440.6" stroke-width="2" stroke="#000000"></line>
    <line x1="272" y1="19.6" x2="272" y2="440.6" stroke-width="2" stroke="#000000"></line>
    <line x1="320" y1="19.6" x2="320" y2="440.6" stroke-width="2" stroke="#000000"></line>
    <circle r="15.600000000000001" cx="80" cy="61.599999999999994" fill="#000000" stroke-width="0" stroke="#000000"
        class="finger finger-string-0 finger-fret-0 finger-string-0-fret-0 finger-circle"></circle>
    <circle r="15.600000000000001" cx="272" cy="61.599999999999994" fill="#000000" stroke-width="0" stroke="#000000"
        class="finger finger-string-4 finger-fret-0 finger-string-4-fret-0 finger-circle"></circle>
    <circle r="15.600000000000001" cx="320" cy="61.599999999999994" fill="#000000" stroke-width="0" stroke="#000000"
        class="finger finger-string-5 finger-fret-0 finger-string-5-fret-0 finger-circle"></circle>
    <circle r="15.600000000000001" cx="224" cy="145.6" fill="#000000" stroke-width="0" stroke="#000000"
        class="finger finger-string-3 finger-fret-1 finger-string-3-fret-1 finger-circle"></circle>
    <circle r="15.600000000000001" cx="128" cy="229.60000000000002" fill="#000000" stroke-width="0" stroke="#000000"
        class="finger finger-string-1 finger-fret-2 finger-string-1-fret-2 finger-circle"></circle>
    <circle r="15.600000000000001" cx="176" cy="229.60000000000002" fill="#000000" stroke-width="0" stroke="#000000"
        class="finger finger-string-2 finger-fret-2 finger-string-2-fret-2 finger-circle"></circle>
    <circle r="0" cx="0" cy="0" fill="none" stroke-width="0" stroke="transparent" class="top-left"></circle>
    <circle r="0" cx="400" cy="0" fill="none" stroke-width="0" stroke="transparent" class="top-right"></circle>
</svg>